<svg id="Capa_1" enable-background="new 0 0 562 562" height="512" viewBox="0 0 562 562" width="512" xmlns="http://www.w3.org/2000/svg"><path fill="rgba(65, 60, 88, 1)" d="m456.625 70.25h-70.25v-70.25h-210.75v70.25h-70.25c-19.398 0-35.125 15.727-35.125 35.125v421.5c0 19.398 15.727 35.125 35.125 35.125h351.25c19.398 0 35.125-15.727 35.125-35.125v-421.5c0-19.398-15.728-35.125-35.125-35.125zm-140.5 386.375h-70.25v-35.125h70.25zm0-76.27v23.582h-70.25v-52.687c0-19.398 15.727-35.125 35.125-35.125 19.363 0 35.125-15.762 35.125-35.125s-15.762-35.125-35.125-35.125-35.125 15.762-35.125 35.125h-70.25c0-58.107 47.268-105.375 105.375-105.375s105.375 47.267 105.375 105.375c0 45.792-29.363 84.862-70.25 99.355z"/></svg>