<?xml version="1.0" encoding="iso-8859-1"?>
<!-- Generator: Adobe Illustrator 19.0.0, SVG Export Plug-In . SVG Version: 6.00 Build 0)  -->
<svg version="1.1" id="Layer_1" xmlns="http://www.w3.org/2000/svg" xmlns:xlink="http://www.w3.org/1999/xlink" x="0px" y="0px"
	 viewBox="0 0 512 512" style="enable-background:new 0 0 512 512;" xml:space="preserve">
<g>
	<g>
		<g>
			<path fill="rgba(65, 60, 88, 1)" d="M169.226,295.168c3.346-3.319,3.368-8.722,0.049-12.068c-0.016-0.017-0.033-0.033-0.049-0.049
				c-3.319-3.346-8.722-3.368-12.068-0.049c-0.017,0.016-0.033,0.033-0.049,0.049l-18.091,18.091c-3.346,3.346-3.346,8.771,0,12.117
				c3.346,3.346,8.771,3.346,12.117,0L169.226,295.168z"/>
			<path fill="rgba(65, 60, 88, 1)" d="M194.826,359.851L194.826,359.851v-0.085c-3.319-3.346-8.722-3.368-12.068-0.049c-0.017,0.016-0.033,0.033-0.049,0.049
				l-18.091,18.091c-1.684,1.684-2.518,3.894-2.508,6.101c-0.011,2.207,0.824,4.417,2.508,6.101c3.346,3.346,8.771,3.346,12.117,0
				l18.091-18.091c0.092-0.091,0.171-0.189,0.258-0.283c3.647-2.742,5.084-7.014,2.416-10.765
				C196.948,360.144,196.27,359.465,194.826,359.851z"/>
			<path fill="rgba(65, 60, 88, 1)" d="M247.951,162.427c-17.14,3.297-30.543,16.7-33.84,33.84c-0.525,2.814-0.783,5.671-0.768,8.533
				c-0.011,8.548,2.546,16.901,7.339,23.979c13.213,19.511,39.741,24.617,59.252,11.404c11.737-7.948,18.76-21.207,18.742-35.382
				c-0.004-2.862-0.261-5.717-0.768-8.533C293.458,173.127,271.091,157.976,247.951,162.427z"/>
			<path fill="rgba(65, 60, 88, 1)" d="M271.626,300.117v-0.085c-3.319-3.346-8.722-3.368-12.068-0.049c-0.017,0.016-0.033,0.033-0.049,0.049l-18.091,18.091
				c-1.684,1.684-2.518,3.894-2.508,6.101c-0.011,2.207,0.824,4.417,2.508,6.101c3.346,3.346,8.771,3.346,12.117,0l18.091-18.091
				c0.092-0.091,0.171-0.189,0.258-0.283c3.647-2.742,5.084-7.014,2.416-10.765C273.748,300.411,273.07,299.732,271.626,300.117z"/>
			<path fill="rgba(65, 60, 88, 1)" d="M426.677,40.875v-0.085c0.082-0.737,0.082-1.481,0-2.219C426.677,1.109,273.504,0,256.01,0
				C238.517,0,85.344,1.109,85.344,38.4c-0.082,0.737-0.082,1.481,0,2.219c-0.116,0.678-0.116,1.37,0,2.048V473.6
				c0,37.291,153.173,38.4,170.667,38.4c17.493,0,170.667-1.109,170.667-38.4V42.667C426.766,42.073,426.766,41.469,426.677,40.875z
				 M256.01,17.067c93.269,0,144.213,13.397,152.832,21.248c-3.337,2.445-7.057,4.32-11.008,5.547l-2.731,0.939l-1.707,0.512
				l-3.755,1.109l-2.645,0.768l-4.693,1.109h-0.939l-3.925,0.853c-1.374,0.374-2.771,0.659-4.181,0.853h-2.133l-6.827,1.28
				l-4.523,0.768c-6.656,1.024-13.995,2.048-22.016,2.901l-12.971,1.28l-9.557,0.768l-8.021,1.195h-7.339l-9.728,0.853h-4.779
				h-46.421h-6.571h-4.352c-3.982,0-7.908-0.171-11.776-0.512h-2.901h-4.096h-3.499l-7.595-0.512l-7.339-0.597h-3.072
				c-4.437,0-8.533-0.768-12.971-1.28h-1.877l-4.693-0.597c-3.499,0-6.741-0.768-9.899-1.28c-12.027-1.644-23.94-4.038-35.669-7.168
				h-0.768c-0.896-0.205-1.779-0.462-2.645-0.768l-2.645-0.853h-1.024l-3.755-2.816h-1.536l-3.499-1.621h-0.512
				c-1.075-0.635-2.101-1.348-3.072-2.133C111.797,30.464,162.741,17.067,256.01,17.067z M126.986,324.014
				c-9.161-9.831-9.161-25.073,0-34.904v0l18.091-18.091c9.639-10.344,25.837-10.916,36.181-1.277
				c10.344,9.639,10.916,25.837,1.277,36.181c-0.411,0.441-0.837,0.867-1.277,1.277l-18.091,18.091
				C152.824,334.929,136.625,334.357,126.986,324.014z M206.858,384l-18.091,18.091c-9.639,10.344-25.838,10.916-36.181,1.277
				c-10.344-9.639-10.916-25.837-1.277-36.181c0.411-0.441,0.836-0.867,1.277-1.277l18.091-18.091
				c10.344-9.639,26.543-9.067,36.181,1.277C216.019,358.927,216.019,374.169,206.858,384z M247.477,349.867
				c-6.787-0.006-13.294-2.707-18.091-7.509c-9.982-9.995-9.982-26.187,0-36.181l18.091-18.091
				c10.344-9.639,26.543-9.067,36.181,1.277c9.161,9.831,9.161,25.073,0,34.905l-18.091,18.091
				C260.771,347.16,254.264,349.861,247.477,349.867z M334.858,385.024L334.858,385.024l-18.091,18.091
				c-4.796,4.802-11.303,7.503-18.091,7.509c-6.787-0.006-13.294-2.707-18.091-7.509c-9.982-9.995-9.982-26.187,0-36.181
				l18.091-18.091c10.344-9.639,26.543-9.067,36.181,1.277C344.019,359.951,344.019,375.193,334.858,385.024z M386.058,307.2
				L386.058,307.2l-18.091,18.091c-9.639,10.344-25.838,10.915-36.181,1.277c-10.344-9.639-10.915-25.838-1.277-36.181
				c0.41-0.44,0.836-0.866,1.277-1.277l18.091-18.091c10.344-9.639,26.543-9.067,36.181,1.277
				C395.219,282.127,395.219,297.369,386.058,307.2z M409.61,185.259c-13.341,5.663-27.372,9.537-41.728,11.52
				c-17.293,2.89-34.725,4.884-52.224,5.973c0,0.683,0,1.365,0,2.048c-0.023,6.625-1.147,13.2-3.328,19.456
				c64.768-4.437,93.355-15.275,97.109-20.224v19.627c-24.917,11.776-72.619,16.469-106.581,18.261
				c-20.586,25.779-58.171,29.99-83.951,9.404c-3.475-2.775-6.629-5.929-9.404-9.404c-34.133-1.792-81.664-6.485-106.752-18.261
				v-19.627c3.755,4.949,32.341,15.787,97.109,20.224c-2.268-6.241-3.479-12.817-3.584-19.456c0-0.683,0-1.365,0-2.048
				c-35.072-2.475-72.789-7.509-93.867-17.493v-19.627c3.755,4.949,31.488,15.616,97.024,20.224
				c10.722-31.199,44.705-47.799,75.904-37.077c17.413,5.984,31.093,19.664,37.077,37.077c65.707-4.608,93.44-15.189,97.195-20.224
				V185.259z"/>
			<path fill="rgba(65, 60, 88, 1)" d="M374.076,283.015c-0.016-0.017-0.033-0.033-0.049-0.049c-3.319-3.346-8.722-3.368-12.068-0.049
				c-0.017,0.016-0.033,0.033-0.049,0.049l-18.091,18.091c-1.684,1.684-2.518,3.894-2.508,6.101
				c-0.011,2.207,0.824,4.417,2.508,6.101c3.346,3.346,8.771,3.346,12.117,0l18.091-18.091c1.685-1.671,2.525-3.871,2.522-6.07
				C376.567,286.901,375.745,284.698,374.076,283.015z"/>
			<path fill="rgba(65, 60, 88, 1)" d="M310.758,360.74c-0.017,0.016-0.033,0.033-0.049,0.049l-18.091,18.091c-3.346,3.346-3.346,8.771,0,12.117
				c3.346,3.346,8.771,3.346,12.117,0l18.091-18.091c3.346-3.346,3.346-8.771,0-12.117
				C319.508,357.443,314.105,357.421,310.758,360.74z"/>
		</g>
	</g>
</g>
<g>
</g>
<g>
</g>
<g>
</g>
<g>
</g>
<g>
</g>
<g>
</g>
<g>
</g>
<g>
</g>
<g>
</g>
<g>
</g>
<g>
</g>
<g>
</g>
<g>
</g>
<g>
</g>
<g>
</g>
</svg>
