<?xml version="1.0" encoding="iso-8859-1"?>
<!-- Generator: Adobe Illustrator 19.0.0, SVG Export Plug-In . SVG Version: 6.00 Build 0)  -->
<svg version="1.1" id="Capa_1" xmlns="http://www.w3.org/2000/svg" xmlns:xlink="http://www.w3.org/1999/xlink" x="0px" y="0px"
	 viewBox="0 0 511.999 511.999" style="enable-background:new 0 0 511.999 511.999;" xml:space="preserve">
<g>
	<g>
		<path fill="rgba(65, 60, 88, 1)" d="M350.332,218.476l-31.337-81.396l-7.87-107.113c-0.039-0.533-0.111-1.056-0.204-1.571
			c4.904-2.467,8.277-7.531,8.277-13.396c0-8.284-6.716-15-15-15h-96.4c-8.284,0-15,6.716-15,15c0,5.864,3.374,10.931,8.279,13.396
			c-0.093,0.515-0.164,1.038-0.203,1.57l-7.873,107.113l-31.334,81.397c-0.662,1.72-1.002,3.546-1.002,5.389v273.134
			c0,8.284,6.716,15,15,15h160.668c8.284,0,15-6.716,15-15V223.865C351.334,222.022,350.994,220.195,350.332,218.476z
			 M190.665,385.599v-114.6h130.668v114.6H190.665z"/>
	</g>
</g>
<g>
</g>
<g>
</g>
<g>
</g>
<g>
</g>
<g>
</g>
<g>
</g>
<g>
</g>
<g>
</g>
<g>
</g>
<g>
</g>
<g>
</g>
<g>
</g>
<g>
</g>
<g>
</g>
<g>
</g>
</svg>
