<?xml version="1.0" encoding="iso-8859-1"?>
<!-- Generator: Adobe Illustrator 19.0.0, SVG Export Plug-In . SVG Version: 6.00 Build 0)  -->
<svg version="1.1" id="Capa_1" xmlns="http://www.w3.org/2000/svg" xmlns:xlink="http://www.w3.org/1999/xlink" x="0px" y="0px"
	 viewBox="0 0 512.001 512.001" style="enable-background:new 0 0 512.001 512.001;" xml:space="preserve">
<g>
	<g>
		<polygon fill="rgba(65, 60, 88, 1)" points="289.351,148.185 162.131,363.816 222.653,363.816 349.872,148.185 		"/>
	</g>
</g>
<g>
	<g>
		<path fill="rgba(65, 60, 88, 1)" d="M504.95,290.829l-0.288-0.422c-2.395-3.51-2.401-8.052-0.011-11.579l0.309-0.455c9.392-13.861,9.312-31.717-0.202-45.491
			c-2.431-3.519-2.451-8.081-0.051-11.622l0.285-0.42c9.361-13.815,9.309-31.632-0.134-45.391l-17.03-24.818l-80.553,36.686
			c-1.291-15.709-11.126-29.035-24.838-35.301l-124.96,211.798h107.301c22.332,0,40.698-17.256,42.495-39.132l80.622,36.717
			l17.124-25.271C514.353,322.359,514.327,304.579,504.95,290.829z"/>
	</g>
</g>
<g>
	<g>
		<path fill="rgba(65, 60, 88, 1)" d="M146.716,148.185c-22.256,0-40.576,17.138-42.479,38.908l-80.061-36.461l-17.03,24.817
			c-9.443,13.76-9.496,31.576-0.135,45.391l0.286,0.423c2.399,3.539,2.379,8.101-0.051,11.618
			c-9.515,13.776-9.595,31.632-0.209,45.483l0.321,0.475c2.384,3.518,2.377,8.06-0.014,11.564l-0.296,0.434
			c-9.373,13.745-9.399,31.524-0.066,45.296l17.124,25.271l80.13-36.494c1.379,15.765,11.369,29.095,25.226,35.253l125.064-211.976
			H146.716z"/>
	</g>
</g>
<g>
</g>
<g>
</g>
<g>
</g>
<g>
</g>
<g>
</g>
<g>
</g>
<g>
</g>
<g>
</g>
<g>
</g>
<g>
</g>
<g>
</g>
<g>
</g>
<g>
</g>
<g>
</g>
<g>
</g>
</svg>
