<?xml version="1.0" encoding="iso-8859-1"?>
<!-- Generator: Adobe Illustrator 19.0.0, SVG Export Plug-In . SVG Version: 6.00 Build 0)  -->
<svg version="1.1" id="Capa_1" xmlns="http://www.w3.org/2000/svg" xmlns:xlink="http://www.w3.org/1999/xlink" x="0px" y="0px"
	 viewBox="0 0 512 512" style="enable-background:new 0 0 512 512;" xml:space="preserve">
<g>
	<g>
		<path fill="rgba(65, 60, 88, 1)" d="M136.64,202.01c-2.42-13.43-5.47-25.53-8.65-36.02c-1.56-5.18-3.15-9.97-4.7-14.34C46.92,186.35,0,258.66,0,258.66
			s46.38,71.48,121.96,106.42c1.81-4.81,3.47-9.59,4.99-14.33C145.83,291.89,143.27,238.9,136.64,202.01z M113.54,228.12H82.42V197
			h31.12V228.12z"/>
	</g>
</g>
<g>
	<g>
		<path fill="rgba(65, 60, 88, 1)" d="M316,61.6c-64.56,7.99-107.23,26.75-133.35,42.96c7.07-0.72,14.14-1.08,21.2-1.08c3.98,0,7.96,0.11,11.94,0.34h0.01
			c10.21,0.58,20.41,1.91,30.57,3.98c18.95,3.84,37.8,10.27,56.47,19.24c5.01,2.4,10.01,5,15,7.78c5.02,2.78,10.02,5.76,15,8.92
			V59.52L316,61.6z"/>
	</g>
</g>
<g>
	<g>
		<path fill="rgba(65, 60, 88, 1)"  d="M268.79,403.81c-4.99,1.56-9.99,2.93-15,4.12c-9.68,2.31-19.4,3.94-29.15,4.89c-6.91,0.69-13.84,1.03-20.78,1.03
			c-2.54,0-5.08-0.05-7.61-0.15h-0.01c-9-0.32-17.99-1.22-26.95-2.71c20.6,19.43,53.8,41.49,98.37,41.49c0.42,0,0.85-0.01,1.27-0.01
			l14.86-0.14v-53.75C278.8,400.51,273.8,402.25,268.79,403.81z"/>
	</g>
</g>
<g>
	<g>
		<path fill="rgba(65, 60, 88, 1)"  d="M512,208.17v-69.5h-44.77c-34.83,0-63.41,27.34-65.38,61.69c-0.08,1.26-0.12,2.53-0.12,3.81v40.09
			c-24.07-27.48-47.57-48.92-70.36-65.31c-7.49-5.39-14.9-10.23-22.23-14.55c-0.95-0.56-1.87-1.11-2.82-1.65
			c0-0.01-0.01-0.01-0.01-0.01h-0.01c-0.13-0.07-0.26-0.14-0.39-0.22c-1.02-0.59-2.05-1.17-3.07-1.73
			c-13.07-7.25-25.86-12.88-38.36-17.1c-1.17-0.39-2.33-0.77-3.49-1.14c-0.86-0.28-1.72-0.54-2.58-0.8
			c-0.93-0.28-1.85-0.56-2.78-0.82c-0.37-0.11-0.75-0.22-1.12-0.32c-3.85-1.09-7.67-2.04-11.46-2.86c-3.79-0.83-7.54-1.53-11.26-2.1
			c-1.27-0.19-2.54-0.38-3.8-0.55c-8.21-1.1-16.26-1.62-24.14-1.62c-1.89,0-3.78,0.03-5.65,0.09c-0.73,0.03-1.46,0.06-2.18,0.09
			c-0.004,0-0.007,0-0.011,0.001c-0.773,0.034-1.544,0.075-2.313,0.119c-0.009,0.001-0.017,0-0.026,0.001
			c-0.36,0.02-0.71,0.03-1.06,0.05c-1.93,0.12-3.86,0.27-5.78,0.46c-0.64,0.06-1.27,0.12-1.91,0.19c-1.38,0.14-2.75,0.3-4.11,0.48
			c-1.36,0.18-2.72,0.37-4.07,0.57c0,0,0,0-0.01,0c-2.02,0.3-4.03,0.64-6.03,1.01c-2.36,0.43-4.69,0.91-7,1.43
			c-2.14,0.48-4.26,0.99-6.37,1.54c-1.99,0.51-3.98,1.06-5.94,1.64c1.57,4.38,3.16,9.14,4.74,14.24
			c3.69,11.97,7.25,25.84,10.03,41.31c5.73,31.85,6.97,63.98,3.69,95.51c-2.44,23.5-7.4,46.69-14.83,69.34
			c-1.57,4.76-3.24,9.51-5.02,14.22c1.12,0.34,2.25,0.67,3.39,0.98c2.35,0.67,4.73,1.29,7.13,1.87c7.48,1.81,15.16,3.2,23.05,4.08
			c6.63,0.75,13.39,1.15,20.29,1.15c11.5,0,23.36-1.1,35.56-3.51c2.03-0.4,4.07-0.83,6.12-1.31c1.03-0.24,2.05-0.48,3.08-0.74
			c1.72-0.42,3.44-0.88,5.17-1.36c0.34-0.09,0.69-0.19,1.04-0.29c1.98-0.56,3.97-1.16,5.97-1.79c0.67-0.21,1.33-0.43,2-0.65
			c1.93-0.63,3.87-1.3,5.81-2c0.65-0.23,1.31-0.47,1.96-0.71c0.01,0,0.01,0,0.01-0.01c4.24-1.57,8.51-3.31,12.81-5.22
			c16.7-7.41,33.88-17.41,51.48-30.43c1.13-0.83,2.27-1.68,3.4-2.54c0.58-0.44,1.15-0.88,1.72-1.32c1.14-0.87,2.28-1.76,3.42-2.66
			c0-0.01,0.01-0.01,0.01-0.01c1.71-1.35,3.43-2.74,5.15-4.15c0,0,0.01,0,0.01-0.01c1.15-0.94,2.29-1.89,3.44-2.85
			c0.58-0.49,1.16-0.98,1.74-1.48c3.46-2.94,6.94-6,10.42-9.19c0.01,0,0.01,0,0.01-0.01c1.16-1.06,2.33-2.13,3.49-3.22
			c0.88-0.82,1.77-1.65,2.65-2.5c0.57-0.54,1.14-1.08,1.71-1.64c2.06-1.96,4.12-3.98,6.18-6.04c7.77-7.75,15.61-16.12,23.51-25.14
			v40.09c0,1.28,0.04,2.55,0.12,3.82c1.97,34.34,30.55,61.68,65.38,61.68H512v-69.49c0-20.31-9.29-38.49-23.83-50.5
			C502.71,246.65,512,228.47,512,208.17z"/>
	</g>
</g>
<g>
</g>
<g>
</g>
<g>
</g>
<g>
</g>
<g>
</g>
<g>
</g>
<g>
</g>
<g>
</g>
<g>
</g>
<g>
</g>
<g>
</g>
<g>
</g>
<g>
</g>
<g>
</g>
<g>
</g>
</svg>
