<svg height="512.00035pt" viewBox="0 0 512.00035 512.00035" width="512.00035pt" xmlns="http://www.w3.org/2000/svg"><path fill="rgba(65, 60, 88, 1)" d="m500.480469 244.863281c29.289062-29.289062.796875-105.269531-63.640625-169.703125-64.433594-64.4375-140.414063-92.929687-169.703125-63.640625-29.289063 29.289063-.796875 105.269531 63.636719 169.707031 64.4375 64.433594 140.417968 92.929688 169.707031 63.636719zm-148.492188-148.492187c12.296875-12.296875 34.597657-7.828125 53.035157 10.605468 18.4375 18.441407 22.902343 40.738282 10.605468 53.035157-12.296875 12.292969-34.597656 7.832031-53.035156-10.605469-18.433594-18.4375-22.898438-40.738281-10.605469-53.035156zm0 0"/><path fill="rgba(65, 60, 88, 1)" d="m230.417969 387.648438 16.886719-16.886719c81.726562-1.546875 152.628906-27.84375 211.488281-84.609375-47.347657-4.195313-104-38.484375-149.230469-83.714844-45.226562-45.226562-79.515625-101.882812-83.714844-149.226562-56.761718 58.855468-83.0625 129.757812-84.609375 211.488281l-16.882812 16.882812c-29.242188 29.238281-29.242188 76.824219 0 106.066407 29.238281 29.238281 76.824219 29.238281 106.0625 0zm0 0"/><path fill="rgba(65, 60, 88, 1)" d="m64.019531 447.980469c-14.644531 14.648437-14.644531 38.390625 0 53.035156s38.386719 14.644531 53.03125 0 14.644531-38.386719 0-53.035156c-1.882812-1.878907-4.230469-2.832031-6.375-4.230469l17.140625-17.140625c-8.804687-4.726563-17.257812-10.328125-24.675781-17.75-7.421875-7.417969-13.019531-15.871094-17.75-24.675781l-17.140625 17.140625c-1.398438-2.144531-2.351562-4.492188-4.230469-6.375-14.644531-14.644531-38.390625-14.644531-53.035156 0s-14.644531 38.386719 0 53.03125c14.644531 14.648437 38.390625 14.648437 53.035156 0zm0 0"/></svg>