<svg height="512pt" viewBox="0 0 512 512" width="512pt" xmlns="http://www.w3.org/2000/svg">
<path fill="rgba(65, 60, 88, 1)" d="m310.777344 14.484375c0-7.988281-6.507813-14.484375-14.496094-14.484375h-80.550781c-7.988281 0-14.488281 6.496094-14.488281 14.484375v40.550781h109.535156zm0 0"/>
<path fill="rgba(65, 60, 88, 1)" d="m496.578125 240.394531h-43.066406c-8.519531 0-15.421875 6.902344-15.421875 15.421875 0 8.515625 6.902344 15.421875 15.421875 15.421875h43.066406c8.515625 0 15.421875-6.90625 15.421875-15.421875 0-8.519531-6.90625-15.421875-15.421875-15.421875zm0 0"/>
<path fill="rgba(65, 60, 88, 1)" d="m58.488281 240.394531h-43.066406c-8.515625 0-15.421875 6.902344-15.421875 15.421875 0 8.515625 6.90625 15.421875 15.421875 15.421875h43.066406c8.519531 0 15.421875-6.90625 15.421875-15.421875 0-8.519531-6.902344-15.421875-15.421875-15.421875zm0 0"/
><path fill="rgba(65, 60, 88, 1)" d="m406.566406 384.570312c-6.023437-6.019531-15.785156-6.019531-21.808594 0-6.023437 6.023438-6.023437 15.789063 0 21.8125l30.453126 30.449219c6.019531 6.023438 15.785156 6.023438 21.808593 0 6.023438-6.019531 6.023438-15.785156 0-21.808593zm0 0"/>
<path fill="rgba(65, 60, 88, 1)" d="m256 437.90625c-8.515625 0-15.421875 6.902344-15.421875 15.421875v43.066406c0 8.515625 6.90625 15.421875 15.421875 15.421875s15.421875-6.90625 15.421875-15.421875v-43.066406c0-8.519531-6.90625-15.421875-15.421875-15.421875zm0 0"/>
<path fill="rgba(65, 60, 88, 1)" d="m105.433594 384.570312-30.453125 30.453126c-6.023438 6.023437-6.023438 15.789062 0 21.808593 6.023437 6.023438 15.789062 6.023438 21.808593 0l30.453126-30.449219c6.023437-6.023437 6.023437-15.789062 0-21.8125-6.023438-6.019531-15.785157-6.019531-21.808594 0zm0 0"/>
<path fill="rgba(65, 60, 88, 1)" d="m334.035156 145.230469c-14.570312-10.539063-23.257812-27.726563-23.257812-45.996094v-13.355469h-39.355469v99.777344c26.566406 6.867188 46.253906 31.050781 46.253906 59.734375v45.820313c0 8.296874-6.375 15.441406-14.664062 15.839843-8.855469.421875-16.179688-6.632812-16.179688-15.40625 0-26.15625.003907-34.960937.007813-46.449219.003906-17.035156-13.800782-30.847656-30.835938-30.847656-17.03125 0-30.835937 13.804688-30.835937 30.835938v46.460937c0 8.773438-7.320313 15.828125-16.179688 15.402344-8.289062-.394531-14.664062-7.539063-14.664062-15.839844v-45.816406c0-28.683594 19.6875-52.867187 46.253906-59.734375v-99.777344h-39.335937v13.355469c0 18.257813-8.707032 35.457031-23.285157 46.007813-34.605469 25.035156-55.261719 65.429687-55.261719 108.0625 0 72.992187 59.78125 133.316406 133.335938 133.316406 73.460938 0 132.832031-58.601563 133.273438-132.492188.257812-42.976562-20.40625-83.679687-55.269532-108.898437zm0 0"/></svg>